<svg width="169" height="16" fill="none" xmlns="http://www.w3.org/2000/svg"><path d="M5.42 15H.264V.455h5.2c1.462 0 2.722.29 3.777.873a5.893 5.893 0 012.437 2.493c.572 1.084.859 2.382.859 3.892 0 1.515-.287 2.817-.86 3.906a5.906 5.906 0 01-2.45 2.507c-1.06.583-2.33.874-3.807.874zm-2.08-2.635h1.953c.909 0 1.673-.16 2.294-.483.625-.327 1.093-.83 1.406-1.513.317-.686.476-1.572.476-2.656 0-1.075-.159-1.953-.476-2.635-.313-.682-.779-1.184-1.4-1.506C6.974 3.25 6.21 3.09 5.3 3.09H3.34v9.276zM17.89.455V15h-3.075V.455h3.075zm12.175 4.701a3.22 3.22 0 00-.419-.916c-.18-.27-.4-.497-.66-.682a2.832 2.832 0 00-.88-.433c-.328-.1-.69-.15-1.088-.15-.743 0-1.396.186-1.96.555-.558.37-.994.907-1.307 1.612-.312.7-.468 1.558-.468 2.571 0 1.013.154 1.875.461 2.585.308.71.744 1.253 1.307 1.627.564.369 1.229.554 1.996.554.696 0 1.29-.123 1.783-.37a2.648 2.648 0 001.136-1.058c.265-.454.398-.992.398-1.612l.625.092h-3.75V7.216h6.086v1.832c0 1.279-.27 2.377-.81 3.296a5.517 5.517 0 01-2.23 2.116c-.946.493-2.03.739-3.252.739-1.364 0-2.562-.3-3.594-.902-1.032-.606-1.837-1.466-2.415-2.578-.573-1.118-.86-2.443-.86-3.978 0-1.178.171-2.23.512-3.153.346-.928.829-1.714 1.449-2.358A6.26 6.26 0 0124.291.76 7.02 7.02 0 0126.97.256c.824 0 1.59.12 2.3.362a6.13 6.13 0 011.89 1.008 5.459 5.459 0 011.357 1.556c.35.596.575 1.255.674 1.974h-3.125zM38.71.455V15h-3.075V.455h3.076zm1.977 2.535V.455h11.946V2.99H48.18V15h-3.04V2.99h-4.453zM55.33 15h-3.295L57.055.455h3.964L66.033 15h-3.295L59.094 3.778h-.114L55.33 15zm-.206-5.717h7.784v2.4h-7.784v-2.4zM67.784 15V.455h3.075v12.01h6.236V15h-9.311zm18.483 0h-3.295L87.993.455h3.963L96.97 15h-3.295L90.032 3.778h-.114L86.268 15zm-.206-5.717h7.784v2.4h-7.784v-2.4zm21.622-4.127a3.23 3.23 0 00-.419-.916 2.596 2.596 0 00-.661-.682 2.832 2.832 0 00-.881-.433c-.326-.1-.689-.15-1.086-.15-.744 0-1.397.186-1.961.555-.558.37-.994.907-1.306 1.612-.313.7-.469 1.558-.469 2.571 0 1.013.154 1.875.462 2.585.307.71.743 1.253 1.306 1.627.564.369 1.229.554 1.996.554.696 0 1.29-.123 1.783-.37a2.645 2.645 0 001.136-1.058c.265-.454.398-.992.398-1.612l.625.092h-3.75V7.216h6.086v1.832c0 1.279-.269 2.377-.809 3.296a5.518 5.518 0 01-2.23 2.116c-.947.493-2.032.739-3.253.739-1.364 0-2.562-.3-3.594-.902-1.032-.606-1.837-1.466-2.415-2.578-.573-1.118-.859-2.443-.859-3.978 0-1.178.17-2.23.511-3.153.346-.928.829-1.714 1.45-2.358a6.263 6.263 0 012.165-1.47 7.023 7.023 0 012.678-.504c.824 0 1.591.12 2.301.362.71.237 1.34.573 1.889 1.008a5.472 5.472 0 011.357 1.556 5.3 5.3 0 01.675 1.974h-3.125zm5.57 9.844V.455h9.801V2.99h-6.726v3.466h6.221v2.535h-6.221v3.473h6.754V15h-9.829zM137.665.455V15h-2.656l-6.329-9.155h-.106V15h-3.075V.455h2.698l6.279 9.147h.128V.455h3.061zm15.374 5.092h-3.11a3.05 3.05 0 00-.348-1.073 2.735 2.735 0 00-.675-.81 2.973 2.973 0 00-.952-.51 3.639 3.639 0 00-1.157-.178c-.753 0-1.409.187-1.968.56-.559.37-.992.91-1.3 1.62-.307.706-.461 1.563-.461 2.571 0 1.037.154 1.908.461 2.614.313.705.749 1.238 1.307 1.598.559.36 1.205.54 1.939.54.412 0 .793-.055 1.144-.164.355-.109.67-.267.944-.476.275-.213.502-.47.682-.774.185-.303.313-.648.384-1.037l3.11.015a5.798 5.798 0 01-1.889 3.587 6.053 6.053 0 01-1.917 1.15c-.739.28-1.575.419-2.507.419-1.298 0-2.458-.294-3.481-.88-1.018-.588-1.823-1.438-2.414-2.55-.587-1.113-.881-2.46-.881-4.042 0-1.586.298-2.935.895-4.048.596-1.113 1.406-1.96 2.429-2.543 1.023-.587 2.173-.88 3.452-.88.842 0 1.624.118 2.343.355a5.941 5.941 0 011.925 1.037 5.34 5.34 0 011.364 1.655c.355.653.582 1.401.681 2.244zm1.353-5.092h3.445l3.317 6.264h.142l3.317-6.264h3.444l-5.305 9.403V15h-3.054V9.858L154.392.455z" fill="#272D38"/></svg>